<?xml version="1.0" standalone="no"?>
<!DOCTYPE svg PUBLIC "-//W3C//DTD SVG 20010904//EN"
 "http://www.w3.org/TR/2001/REC-SVG-20010904/DTD/svg10.dtd">
<svg version="1.0" xmlns="http://www.w3.org/2000/svg"
 width="512.000000pt" height="512.000000pt" viewBox="0 0 512.000000 512.000000"
 preserveAspectRatio="xMidYMid meet">
<metadata>
Created by potrace 1.11, written by Peter Selinger 2001-2013
</metadata>
<g transform="translate(0.000000,512.000000) scale(0.100000,-0.100000)"
fill="#000000" stroke="none">
<path d="M365 5106 c-45 -20 -84 -64 -92 -105 -4 -20 -7 -1127 -7 -2461 l0
-2425 27 -41 c55 -81 -167 -74 2276 -71 l2177 2 37 25 c20 14 44 43 54 65 17
37 18 153 18 2470 -1 2276 -2 2432 -18 2465 -9 19 -34 46 -54 60 l-37 25
-2175 2 c-1790 2 -2181 0 -2206 -11z"/>
</g>
</svg>
